# xmcd
#
# Track frame offsets:
#	150
#	12394
#	25617
#	37167
#	50862
#	64616
#	76411
#	91358
#	101286
#	116968
#	131355
#	144529
#	157617
#	170687
#	188248
#	203832
#	214195
#	225743
#	237289
#	249956
#	260080
#	269884
#	282096
#	294963
#	306652
#
# Disc length: 4277 seconds
#
# Revision: 1
# Processed by: cddbd v1.5.2PL0 Copyright (c) Steve Scherf et al.
# Submitted via: audiograbber 1.83.01
#
DISCID=7110b319
DTITLE=Margo Smith - Margo Smith CD1
DYEAR=1996
DGENRE=Couintry
TTITLE0=Alone
TTITLE1=Don't Break The Heart That Loves You
TTITLE2=If I Give My Heart To You
TTITLE3=It Only Hurts For A Little While
TTITLE4=Little Things Mean A Lot
TTITLE5=Paper Lovin'
TTITLE6=Shuffle Song
TTITLE7=There I Said It Again
TTITLE8=Save Your Kisses For Me
TTITLE9=Heartaches By The Number
TTITLE10=Get Me My Cryin Towel
TTITLE11=My Happiness
TTITLE12=I'm Tying The Leaves Back On The Trees
TTITLE13=Jessie
TTITLE14=Still A Woman
TTITLE15=Either You're Married Or You're Single
TTITLE16=Tennessee Yodeller
TTITLE17=My Weakness
TTITLE18=Chimebells
TTITLE19=Indian Love Call
TTITLE20=Ridin' High
TTITLE21=Wedding Bells
TTITLE22=I Want To Be A Cowboy's Sweetheart
TTITLE23=My Little Lady Who
TTITLE24=Six Weeks Every Summer (Christmas Every Other Year)
EXTD=
EXTT0=
EXTT1=
EXTT2=
EXTT3=
EXTT4=
EXTT5=
EXTT6=
EXTT7=
EXTT8=
EXTT9=
EXTT10=
EXTT11=
EXTT12=
EXTT13=
EXTT14=
EXTT15=
EXTT16=
EXTT17=
EXTT18=
EXTT19=
EXTT20=
EXTT21=
EXTT22=
EXTT23=
EXTT24=
PLAYORDER=
